PathFileType	4	(X/Y/Z)	/Users/itak/Documents/Research/Walk-IL/dataset/trc/00103_00007.trc
DataRate	CameraRate	NumFrames	NumMarkers	Units	OrigDataRate	OrigDataStartFrame	OrigNumFrames
100.000000	100.000000	4	53	mm	100.000000	140	563
Frame#	Time	RPSI			LPSI			L3			STRN			T10			C7			CLAV			RBAK			LBAK			LSHO			LUPA			LAEL			LAOL			LWTS			LWPS			LFRA			LIFD			LHPS			LHTS			RSHO			RUPA			RAEL			RAOL			RWTS			RWPS			RFRA			RIFD			RHTS			RHPS			RBHD			LFHD			RFHD			LBHD			LHIP			RHIP			RASI			LASI			LKNE			LTHI			LANK			LTIP			LTOE			LMT1			LMT5			LHEE			RKNE			RTHI			RANK			RTIP			RTOE			RMT1			RMT5			RHEE			
		X1	Y1	Z1	X2	Y2	Z2	X3	Y3	Z3	X4	Y4	Z4	X5	Y5	Z5	X6	Y6	Z6	X7	Y7	Z7	X8	Y8	Z8	X9	Y9	Z9	X10	Y10	Z10	X11	Y11	Z11	X12	Y12	Z12	X13	Y13	Z13	X14	Y14	Z14	X15	Y15	Z15	X16	Y16	Z16	X17	Y17	Z17	X18	Y18	Z18	X19	Y19	Z19	X20	Y20	Z20	X21	Y21	Z21	X22	Y22	Z22	X23	Y23	Z23	X24	Y24	Z24	X25	Y25	Z25	X26	Y26	Z26	X27	Y27	Z27	X28	Y28	Z28	X29	Y29	Z29	X30	Y30	Z30	X31	Y31	Z31	X32	Y32	Z32	X33	Y33	Z33	X34	Y34	Z34	X35	Y35	Z35	X36	Y36	Z36	X37	Y37	Z37	X38	Y38	Z38	X39	Y39	Z39	X40	Y40	Z40	X41	Y41	Z41	X42	Y42	Z42	X43	Y43	Z43	X44	Y44	Z44	X45	Y45	Z45	X46	Y46	Z46	X47	Y47	Z47	X48	Y48	Z48	X49	Y49	Z49	X50	Y50	Z50	X51	Y51	Z51	X52	Y52	Z52	X53	Y53	Z53	

141	1.4	-1904.370361328125	1125.555541992188	-271.1255493164062	-1903.82568359375	1127.224365234375	-405.5162048339844	-1911.314208984375	1159.011962890625	-341.0569152832031	-1696.67431640625	1361.040405273438	-338.1350708007812	-1952.409790039062	1307.852661132812	-342.168701171875	-1919.679931640625	1599.621826171875	-356.6063537597656	-1733.5546875	1496.638549804688	-342.3641052246094	-1973.9970703125	1414.85595703125	-270.2369689941406	-1924.145751953125	1580.213256835938	-458.5052490234375	-1835.066772460938	1568.442626953125	-524.2196655273438	-1849.819091796875	1435.76904296875	-594.1344604492188	-1825.21923828125	1215.174926757812	-610.5916137695312	-1895.560180664062	1202.053100585938	-559.7932739257812	-1722.593505859375	961.8646240234375	-551.0603637695312	-1799.824584960938	933.4459838867188	-585.8768310546875	-1804.960327148438	1099.92626953125	-609.8600463867188	-1710.585327148438	768.766357421875	-521.9999389648438	-1768.064331054688	859.18701171875	-581.3585815429688	-1703.380737304688	872.5960693359375	-557.9562377929688	-1870.96630859375	1583.029296875	-173.6128082275391	-1888.9169921875	1509.851318359375	-110.0165939331055	-1893.586547851562	1214.622192382812	-87.09243011474609	-1900.755737304688	1213.50830078125	-184.0993194580078	-1742.0517578125	975.398193359375	-104.7880783081055	-1816.393432617188	956.350830078125	-71.759765625	-1867.977783203125	1141.693359375	-72.08028411865234	-1714.816040039062	780.9749755859375	-123.812629699707	-1710.594848632812	866.99755859375	-100.617431640625	-1779.564575195312	857.4490356445312	-67.76622009277344	-1883.744873046875	1774.011352539062	-274.747314453125	-1720.23583984375	1839.4228515625	-408.6052856445312	-1719.462524414062	1844.175537109375	-279.054931640625	-1890.8466796875	1772.670166015625	-409.6908569335938	-1811.247680664062	1037.9765625	-512.338623046875	-1779.00146484375	1029.008056640625	-154.1300354003906	-1696.474853515625	1103.039672851562	-205.3196868896484	-1705.058837890625	1102.806640625	-471.3283996582031	-1794.468139648438	535.3897094726562	-477.9916076660156	-1811.97509765625	682.0089111328125	-507.5895080566406	-1914.507202148438	37.36758041381836	-467.0370483398438	-1899.242309570312	290.357666015625	-502.9471435546875	-1684.740600585938	36.73525238037109	-404.0176696777344	-1766.59228515625	39.99861145019531	-372.1348876953125	-1788.434692382812	33.10317993164062	-490.577880859375	-1984.02978515625	37.21662521362305	-404.7651672363281	-1797.598388671875	536.5713500976562	-189.819580078125	-1766.3828125	814.6024169921875	-160.6571655273438	-1914.42236328125	28.98788452148438	-208.906494140625	-1828.0361328125	403.8323974609375	-179.2073974609375	-1681.655883789062	40.27463531494141	-262.7351684570312	-1744.215454101562	30.58555603027344	-303.672607421875	-1780.69384765625	37.36014556884766	-187.5522003173828	-1972.101684570312	32.73736190795898	-257.9356689453125	
142	1.41	-1904.002685546875	1125.554809570312	-270.9563293457031	-1903.42529296875	1127.232299804688	-405.3907470703125	-1910.876586914062	1159.04736328125	-340.8869323730469	-1696.279907226562	1360.956176757812	-337.8219909667969	-1951.97314453125	1307.88916015625	-342.0880126953125	-1919.115478515625	1599.601928710938	-356.4166564941406	-1733.082641601562	1496.59619140625	-342.0684509277344	-1973.540771484375	1414.857177734375	-270.0587158203125	-1923.556640625	1580.232788085938	-458.3345642089844	-1834.460327148438	1568.453857421875	-523.9912719726562	-1849.179565429688	1435.772216796875	-593.9345703125	-1824.571411132812	1215.18798828125	-610.442138671875	-1894.947143554688	1202.061645507812	-559.6756591796875	-1722.085327148438	961.870361328125	-550.9855346679688	-1799.221313476562	933.4461059570312	-585.8155517578125	-1804.373046875	1099.929931640625	-609.7664794921875	-1710.064697265625	768.7319946289062	-521.9376831054688	-1767.561401367188	859.1943969726562	-581.336181640625	-1702.838989257812	872.6001586914062	-557.8826904296875	-1870.4970703125	1583.03955078125	-173.3969573974609	-1888.477172851562	1509.881103515625	-109.78564453125	-1893.226196289062	1214.621215820312	-86.84806060791016	-1900.40966796875	1213.4951171875	-183.8818969726562	-1741.715576171875	975.3707275390625	-104.4920425415039	-1816.08251953125	956.3431396484375	-71.51219177246094	-1867.675170898438	1141.70947265625	-71.86339569091797	-1714.458984375	780.9683227539062	-123.5439910888672	-1710.316284179688	866.9991455078125	-100.2837219238281	-1779.271240234375	857.4390258789062	-67.513916015625	-1883.064086914062	1774.034545898438	-274.5556335449219	-1719.486328125	1839.249267578125	-408.4222717285156	-1718.741455078125	1844.0712890625	-278.8353271484375	-1890.153442382812	1772.662841796875	-409.4961853027344	-1810.96923828125	1037.952026367188	-512.212646484375	-1778.733520507812	1028.917358398438	-153.9241180419922	-1696.09912109375	1102.96923828125	-205.0922546386719	-1704.429077148438	1102.733154296875	-471.0738525390625	-1794.325805664062	535.3878173828125	-477.9020690917969	-1811.734252929688	681.9837646484375	-507.4547424316406	-1914.50244140625	37.36555480957031	-467.0397644042969	-1899.076171875	290.4271240234375	-502.9732055664062	-1684.758056640625	36.72541809082031	-403.9854736328125	-1766.591064453125	39.99585723876953	-372.1318969726562	-1788.433349609375	33.10295104980469	-490.5779418945312	-1984.043701171875	37.23415756225586	-404.7771606445312	-1797.518310546875	536.5162963867188	-189.748046875	-1766.026245117188	814.5541381835938	-160.4278259277344	-1914.4287109375	28.9857234954834	-208.9026031494141	-1827.94091796875	403.7824096679688	-179.1623077392578	-1681.625244140625	40.28377914428711	-262.7251892089844	-1744.224731445312	30.58611488342285	-303.6829833984375	-1780.695556640625	37.36056900024414	-187.5541534423828	-1972.100219726562	32.72956085205078	-257.9319458007812	
143	1.42	-1903.624877929688	1125.550170898438	-270.77392578125	-1903.030639648438	1127.23486328125	-405.2618103027344	-1910.434936523438	1159.084228515625	-340.711181640625	-1695.916748046875	1360.869750976562	-337.5072937011719	-1951.523559570312	1307.924194335938	-341.9831237792969	-1918.53857421875	1599.589233398438	-356.2145690917969	-1732.628784179688	1496.526000976562	-341.77490234375	-1973.073486328125	1414.857177734375	-269.8663635253906	-1922.942993164062	1580.255737304688	-458.1488647460938	-1833.836181640625	1568.463745117188	-523.7617797851562	-1848.511474609375	1435.777099609375	-593.7301025390625	-1823.896240234375	1215.20263671875	-610.2877807617188	-1894.311767578125	1202.0732421875	-559.5623168945312	-1721.569580078125	961.8807373046875	-550.8990478515625	-1798.614501953125	933.4451293945312	-585.7544555664062	-1803.755981445312	1099.935546875	-609.6715087890625	-1709.58251953125	768.7057495117188	-521.8679809570312	-1767.056518554688	859.201416015625	-581.3074340820312	-1702.32568359375	872.6055297851562	-557.798583984375	-1870.036743164062	1583.0498046875	-173.1771392822266	-1888.033935546875	1509.904663085938	-109.5554351806641	-1892.851196289062	1214.626342773438	-86.59035491943359	-1900.074340820312	1213.478637695312	-183.6822967529297	-1741.376342773438	975.3623657226562	-104.1673965454102	-1815.786376953125	956.3326416015625	-71.28024291992188	-1867.37255859375	1141.720458984375	-71.66019439697266	-1714.116943359375	780.9448852539062	-123.2857131958008	-1710.032836914062	867.0118408203125	-99.92732238769531	-1778.962890625	857.4358520507812	-67.25576019287109	-1882.367309570312	1774.046752929688	-274.3613586425781	-1718.717651367188	1839.06103515625	-408.2309875488281	-1718.008544921875	1843.964721679688	-278.6064453125	-1889.4423828125	1772.654907226562	-409.3061218261719	-1810.681030273438	1037.922607421875	-512.0712890625	-1778.447998046875	1028.825317382812	-153.71484375	-1695.7294921875	1102.891967773438	-204.8515930175781	-1703.808349609375	1102.644653320312	-470.8340148925781	-1794.189086914062	535.379638671875	-477.8173217773438	-1811.496948242188	681.95654296875	-507.3249816894531	-1914.498657226562	37.36069107055664	-467.0447387695312	-1898.873168945312	290.5208740234375	-503.0164489746094	-1684.776000976562	36.71875762939453	-403.9563598632812	-1766.588989257812	39.99322509765625	-372.1298828125	-1788.431640625	33.09864044189453	-490.5785217285156	-1984.059814453125	37.25083160400391	-404.7908020019531	-1797.400390625	536.4588623046875	-189.6860198974609	-1765.664306640625	814.5027465820312	-160.1896057128906	-1914.438842773438	28.98332595825195	-208.8984985351562	-1827.819580078125	403.7209167480469	-179.1252593994141	-1681.595703125	40.29738616943359	-262.7132263183594	-1744.23828125	30.58916664123535	-303.6944885253906	-1780.696166992188	37.36330032348633	-187.5570678710938	-1972.101318359375	32.72126007080078	-257.9290771484375	
144	1.43	-1903.244384765625	1125.5400390625	-270.5823059082031	-1902.637451171875	1127.231079101562	-405.1242370605469	-1910.000610351562	1159.119018554688	-340.5360107421875	-1695.580200195312	1360.781005859375	-337.1934204101562	-1951.057373046875	1307.955200195312	-341.8501586914062	-1917.948974609375	1599.585693359375	-355.999755859375	-1732.179565429688	1496.429077148438	-341.4853820800781	-1972.593994140625	1414.861206054688	-269.6634521484375	-1922.302856445312	1580.28369140625	-457.948974609375	-1833.189453125	1568.469848632812	-523.5272827148438	-1847.822143554688	1435.789184570312	-593.5214233398438	-1823.198364257812	1215.218627929688	-610.1312866210938	-1893.661499023438	1202.086059570312	-559.4575805664062	-1721.034301757812	961.8929443359375	-550.79931640625	-1798.012329101562	933.4434814453125	-585.6950073242188	-1803.108154296875	1099.94189453125	-609.57275390625	-1709.137817382812	768.6839599609375	-521.78955078125	-1766.537475585938	859.20361328125	-581.2692260742188	-1701.836791992188	872.6051635742188	-557.7031860351562	-1869.571166992188	1583.0537109375	-172.9466705322266	-1887.58837890625	1509.917724609375	-109.3262481689453	-1892.466552734375	1214.636596679688	-86.32241821289062	-1899.741088867188	1213.461791992188	-183.4912872314453	-1741.039916992188	975.3710327148438	-103.8268203735352	-1815.501708984375	956.3185424804688	-71.06008911132812	-1867.065795898438	1141.725341796875	-71.46121978759766	-1713.785888671875	780.9048461914062	-123.0301971435547	-1709.74072265625	867.03173828125	-99.55863952636719	-1778.636596679688	857.4356689453125	-66.98886108398438	-1881.652221679688	1774.047485351562	-274.1619262695312	-1717.925903320312	1838.862060546875	-408.0258178710938	-1717.258056640625	1843.853759765625	-278.3699645996094	-1888.710205078125	1772.645385742188	-409.1156311035156	-1810.370239257812	1037.88623046875	-511.9076232910156	-1778.1455078125	1028.73388671875	-153.4990386962891	-1695.380004882812	1102.80517578125	-204.5943756103516	-1703.22900390625	1102.538452148438	-470.6223754882812	-1794.057373046875	535.3643798828125	-477.7391052246094	-1811.263671875	681.9291381835938	-507.2012023925781	-1914.49658203125	37.35210800170898	-467.0509338378906	-1898.641357421875	290.6314697265625	-503.0735473632812	-1684.789794921875	36.71620559692383	-403.9371948242188	-1766.586303710938	39.98995590209961	-372.1286315917969	-1788.430786132812	33.09085845947266	-490.5805053710938	-1984.075805664062	37.26384353637695	-404.8070373535156	-1797.233642578125	536.3994140625	-189.6337280273438	-1765.311279296875	814.4490966796875	-159.9476318359375	-1914.452880859375	28.98139190673828	-208.8952789306641	-1827.66748046875	403.6457214355469	-179.0994262695312	-1681.578979492188	40.31625747680664	-262.7000732421875	-1744.257568359375	30.59730339050293	-303.7044372558594	-1780.697387695312	37.36859893798828	-187.5607452392578	-1972.106079101562	32.71278762817383	-257.9281005859375	
